# xmcd CD database file
#
# Track frame offsets:
#	150
#	22700
#	38612
#	58092
#	64307
#	116695
#	155300
#	185132
#	212772
#	227802
#
# Disc length: 3233 seconds
#
# Revision: 0
# Processed by: cddbd v1.5.1PL0 Copyright (c) Steve Scherf et al.
# Submitted via: CDex 1.51
#
DISCID=840c9f0a
DTITLE=Fredrik Carlquist - Opposite
DYEAR=1900
DGENRE=Jazz
TTITLE0=Orbit
TTITLE1=Out of Orbit
TTITLE2=Chiang
TTITLE3=Epilogue
TTITLE4=Exit
TTITLE5=Weather
TTITLE6=Dearly Beloved
TTITLE7=Forest Flower
TTITLE8=Blue Monk
TTITLE9=Leitmotif
EXTD=
EXTT0=
EXTT1=
EXTT2=
EXTT3=
EXTT4=
EXTT5=
EXTT6=
EXTT7=
EXTT8=
EXTT9=
PLAYORDER=
